# xmcd CD database file
#
# Track frame offsets:
#       150
#       17929
#       34163
#       50257
#       66196
#       82102
#       100453
#       118953
#       133830
#       151087
#       168732
#       186303
#
# Disc length: 2684 seconds
#
# Revision: 1
# Processed by: cddbd v1.5.2PL0 Copyright (c) Steve Scherf et al.
# Submitted via: CDex 1.51
#
DISCID=ad0a7a0c
DTITLE=Revolverheld / Immer in Bewegung
DYEAR=2013
DGENRE=Pop
TTITLE0=Immer in Bewegung
TTITLE1=Das kann uns keiner nehmen
TTITLE2=Bands deiner Jugend
TTITLE3=Ich lass fuer Dich das Licht an
TTITLE4=Neu anfangen
TTITLE5=Sommer in Schweden
TTITLE6=Lass uns gehen
TTITLE7=Wir schmeissen unsere Herzen ins Feuer
TTITLE8=Deine Naehe tut mir weh
TTITLE9=Aufhoeren mich zu verlieren
TTITLE10=Hinter der Elbe New York
TTITLE11=Worte die bleiben
EXTD= YEAR: 2013
EXTT0=
EXTT1=
EXTT2=
EXTT3=
EXTT4=
EXTT5=
EXTT6=
EXTT7=
EXTT8=
EXTT9=
EXTT10=
EXTT11=
PLAYORDER=
.
